<?xml version="1.0" encoding="utf-8"?>
<!-- Generator: Adobe Illustrator 24.2.1, SVG Export Plug-In . SVG Version: 6.00 Build 0)  -->
<svg version="1.1" id="Camada_1" xmlns="http://www.w3.org/2000/svg" xmlns:xlink="http://www.w3.org/1999/xlink" x="0px" y="0px"
	 viewBox="0 0 19.9 16.5" style="enable-background:new 0 0 19.9 16.5;" xml:space="preserve">
<style type="text/css">
	.st0{fill:#21303E;}
</style>
<desc>Created with Sketch.</desc>
<g id="Page-1">
	<g id="_x30_1c_x5F_home_x5F_pathology" transform="translate(-792.000000, -304.000000)">
		<g id="GROUP-MALNUTRITION" transform="translate(792.000000, 304.000000)">
			<g id="CALCULATE" transform="translate(38.000000, 16.000000)">
				<g id="noun_calculate_1216507" transform="translate(0.000000, 0.888889)">
					<path id="Path" class="st0" d="M-18.1-16.8v2.1c0,0.1-0.1,0.1-0.1,0.1h-9c0,0-0.1,0-0.1,0.1l-5,13.3c-0.4,1-1.7,1-2.1,0.1
						l-2.4-5.4l-0.1-0.1h-0.9c-0.1,0-0.1-0.1-0.1-0.1v-2.1C-38.1-8.9-38-8.9-38-8.9h1.7c0.5,0,0.9,0.3,1.1,0.7l1.6,3.4
						c0,0.1,0.1,0.1,0.1,0l4.3-11.3c0.2-0.5,0.6-0.8,1.1-0.8h9.9L-18.1-16.8z"/>
					<path id="Path_1_" class="st0" d="M-18.4-2.4c0.5,0.5,0.4,1.3-0.2,1.7c-0.5,0.4-1.2,0.3-1.6-0.2l-6.7-7.2
						c-0.5-0.5-0.4-1.3,0.1-1.7c0.5-0.4,1.2-0.3,1.6,0.2l2.4,2.6c0,0,0.1,0,0.2,0l2.4-2.6c0.5-0.5,1.3-0.5,1.7,0s0.4,1.2-0.1,1.6
						l-2.5,2.7c0,0,0,0.1,0,0.2L-18.4-2.4z"/>
					<path id="Path_2_" class="st0" d="M-23.5-3c0,0,0,0.1,0,0.2l-1.7,2c-0.4,0.5-1.1,0.6-1.6,0.2c-0.5-0.4-0.6-1.3-0.1-1.8l1.9-2.1
						c0-0.1,0.1-0.1,0.2,0L-23.5-3z"/>
				</g>
			</g>
		</g>
	</g>
</g>
</svg>
