<?xml version="1.0" encoding="utf-8"?>
<!-- Generator: Adobe Illustrator 24.2.1, SVG Export Plug-In . SVG Version: 6.00 Build 0)  -->
<svg version="1.1" id="Camada_1" xmlns="http://www.w3.org/2000/svg" xmlns:xlink="http://www.w3.org/1999/xlink" x="0px" y="0px"
	 viewBox="0 0 20.7 20.2" style="enable-background:new 0 0 20.7 20.2;" xml:space="preserve">
<style type="text/css">
	.st0{fill:#21303E;}
</style>
<g>
	<path class="st0" d="M15,18.9c-0.1-0.2-0.2-0.3-0.3-0.5v-0.1c0,0,0.1,0,0.2-0.1l0.2-0.1l0.1-0.1l-0.1-0.2l0,0
		c-0.4-0.5-0.9-1-1.4-1.6c-0.1-0.1-0.2-0.2-0.4-0.1h-0.1c-0.1,0.1-0.2,0.2-0.1,0.4l0.1,0.1c0.1,0.3,0.2,0.6,0.4,0.9c0,0,0,0-0.1,0
		l0.1,0.2l0,0l-0.2-0.2l-0.3,0.1c-0.1,0-0.1,0.1-0.2,0.1L12.7,18l0.5,1.4c0.1,0.1,0.1,0.3,0.2,0.5c0,0.1,0.1,0.1,0.1,0.2l0.2,0.1
		l1.3-0.3c0.1,0,0.1,0,0.2-0.1l0.1-0.1v-0.2L15,18.9z"/>
	<path class="st0" d="M8.3,17.7L8,17.6l-0.1,0.2l0,0l0,0v-0.3c-0.1,0-0.1,0-0.1-0.1c0.1-0.2,0.2-0.5,0.3-0.7l0.1-0.2
		c0.1-0.3,0-0.4-0.1-0.4H8c-0.1,0-0.2,0-0.3,0.1c-0.6,0.6-1,1.1-1.4,1.6l-0.1,0.1l-0.1,0.2l0.2,0.2h0.2c0,0,0.1,0,0.2,0.1
		c0,0,0,0,0,0.1c-0.1,0.2-0.3,0.4-0.4,0.6l-0.2,0.3c0,0.1-0.1,0.1-0.1,0.2v0.1l0.2,0.2l1.3,0.3h0.1h0.1l0.1-0.1V20
		c0.1-0.2,0.1-0.3,0.2-0.5l0.5-1.3v-0.1l0-0.3C8.5,17.8,8.4,17.7,8.3,17.7z"/>
	<path class="st0" d="M20.7,16.4c-0.8-1.9-2.4-3-5.1-3.2c-0.9-0.1-1.6-0.6-2-1.3c-0.2-0.3-0.2-0.7-0.2-1.1s0.1-0.8,0.3-1.2
		c0.1-0.1,0.1-0.3,0.2-0.4s0.3-0.7,0.3-0.7c0.1-0.2,0.1-0.3,0.2-0.5c0.4-0.1,0.6-0.4,0.8-0.7c0.3-0.5,0.4-1.1,0.4-1.7
		c0-0.5-0.2-0.9-0.6-1.1c0.1-1-0.1-1.8-0.6-2.5c-0.9-1.2-2.2-1.9-4-2h-0.1l0,0c-1.7,0.1-3,0.8-4,2C5.8,2.7,5.6,3.5,5.7,4.5
		C5.3,4.7,5.1,5.1,5.1,5.6c0,0.6,0.1,1.2,0.4,1.7C5.7,7.6,6,7.9,6.3,8c0.1,0.2,0.1,0.4,0.2,0.6S6.6,8.9,6.7,9c0,0.1,0.1,0.2,0.2,0.2
		c0,0,0,0.1,0.1,0.1c0.1,0.1,0.1,0.2,0.2,0.3c0.1,0.2,0.2,0.4,0.2,0.7c0.1,0.5,0.1,0.9-0.1,1.3c0,0.1,0,0.1-0.1,0.2
		c-0.3,0.8-1.1,1.3-2,1.3c-2.6,0.3-4.2,1.3-5.1,3.2C0,16.5,0,16.8,0.2,17c0.1,0.2,0.4,0.3,0.6,0.3c0.3,0,0.6-0.2,0.7-0.4
		c0.6-1.4,1.8-2.1,3.9-2.3c1.5-0.1,2.6-0.9,3.2-2.2c0.2-0.4,0.3-0.8,0.3-1.3c0.4,0.2,0.9,0.3,1.3,0.4c0.1,0,0.1,0,0.2,0s0.1,0,0.2,0
		c0.4,0,0.9-0.1,1.3-0.4c0,0.4,0.1,0.9,0.3,1.3c0.6,1.3,1.7,2.1,3.2,2.2c2.1,0.2,3.2,0.9,3.9,2.3c0.1,0.3,0.4,0.4,0.7,0.4
		c0.2,0,0.5-0.1,0.6-0.3C20.8,16.9,20.8,16.6,20.7,16.4z M10.5,10.1C10.4,10.1,10.4,10.1,10.5,10.1c-0.9,0-1.6-0.8-1.9-1.2
		C8.5,8.7,8.3,8.4,8.2,8.2c0-0.1-0.1-0.1-0.1-0.1C8,7.9,7.9,7.7,7.9,7.5c0,0,0-0.1,0-0.2L7.8,6.6H7.3c-0.1,0-0.2,0-0.2,0
		C6.9,6.3,6.9,6,6.8,5.6h0.1l0.7-0.1L7.5,4.6c0-0.1,0-0.2,0-0.3c-0.1-0.7,0-1.2,0.3-1.6c0.7-0.9,1.6-1.3,2.9-1.4
		c1.3,0.1,2.2,0.6,2.9,1.4c0.3,0.4,0.4,0.9,0.3,1.6c0,0.1,0,0.2,0,0.3l-0.4,0.9l0.7,0.1c0,0,0,0,0.1,0c0,0.4-0.1,0.7-0.3,1
		c0,0,0,0-0.2,0h-0.5l-0.1,0.6c0,0.1,0,0.1,0,0.2c-0.1,0.2-0.1,0.4-0.2,0.5L12.9,8c-0.2,0.2-0.3,0.5-0.4,0.7c-0.3,0.4-1,1.2-1.8,1.2
		L10.5,10.1z M10.5,10.3L10.5,10.3L10.5,10.3L10.5,10.3z"/>
	<path class="st0" d="M12,16l0.6-0.1l-0.5-0.4l0,0L12,15.4c0,0,0,0-0.1,0c0,0,0,0,0.1,0l0.1-0.1l0.4-0.4l-0.7-0.1c0,0,0,0-0.1,0
		v-0.1c0-0.1,0-0.1,0-0.2V14l-0.2,0.1c-0.1,0-0.1,0-0.1,0s0-0.1,0-0.2l-0.1-0.8l-0.5,0.6c-0.1,0.1-0.1,0.1-0.1,0.1l-0.1-0.1
		l-0.4-0.5l-0.1,0.6v0.1V14c0,0,0,0-0.1,0s-0.1,0-0.2-0.1l-0.5-0.1l0.2,0.5c0,0.1,0,0.1,0.1,0.1l0,0H9.5H9.4l-0.6,0.1l0.5,0.4
		L9.4,15h0.1c0,0,0,0-0.1,0.1l-0.1,0.1l-0.4,0.4l0.5,0.1c0.1,0,0.1,0,0.2,0c0,0.1,0,0.1,0,0.2l-0.1,0.5l0.5-0.2h0.1l0,0v0.1
		c0,0,0,0.1,0.1,0.1l0.2,0.4l0.3-0.3l0.1-0.1l0,0c0,0,0.1,0,0.1,0.1l0.1,0.1l0.4,0.3l0.1-0.6v-0.1h0.1l0.8,0.3l-0.3-0.7L12,15.7h0.1
		C12,16,12,16,12,16z"/>
</g>
</svg>
