<?xml version="1.0" encoding="utf-8"?>
<!-- Generator: Adobe Illustrator 16.0.0, SVG Export Plug-In . SVG Version: 6.00 Build 0)  -->
<!DOCTYPE svg PUBLIC "-//W3C//DTD SVG 1.1//EN" "http://www.w3.org/Graphics/SVG/1.1/DTD/svg11.dtd">
<svg version="1.1" id="Layer_1" xmlns="http://www.w3.org/2000/svg" xmlns:xlink="http://www.w3.org/1999/xlink" x="0px" y="0px"
	 width="25px" height="25px" viewBox="0 0 25 25" enable-background="new 0 0 25 25" xml:space="preserve">
<g id="Icon_x2F_Toolbox">
	<path fill="#30394F" d="M20.101,24.52H4.9c-1.378,0-2.5-1.121-2.5-2.5V4.26c0-1.378,1.122-2.5,2.5-2.5h15.2
		c1.379,0,2.5,1.122,2.5,2.5V22.02C22.601,23.398,21.479,24.52,20.101,24.52z M4.9,2.76c-0.827,0-1.5,0.673-1.5,1.5V22.02
		c0,0.827,0.673,1.5,1.5,1.5h15.2c0.827,0,1.5-0.673,1.5-1.5V4.26c0-0.827-0.673-1.5-1.5-1.5H4.9z"/>
	<path fill="#30394F" d="M14.921,20.326h-1v-3.26c0-1.302,1.078-2.361,2.403-2.361h3.259v1h-3.259c-0.773,0-1.403,0.61-1.403,1.361
		V20.326z"/>
	<path fill="#30394F" d="M14.299,20.68H8.021c-1.688,0-3.061-1.268-3.061-2.826V6.1c0-0.276,0.224-0.5,0.5-0.5s0.5,0.224,0.5,0.5
		v11.753c0,1.007,0.924,1.826,2.061,1.826h6.114c0.311-0.265,1.401-1.271,4.948-4.688V6.1c0-0.276,0.224-0.5,0.5-0.5
		s0.5,0.224,0.5,0.5v9.105c0,0.136-0.056,0.266-0.153,0.36C14.623,20.68,14.579,20.68,14.299,20.68z"/>
	<g>
		<path id="Rectangle-Copy_1_" fill="#30394F" d="M8.608,0.98h7.783c0.553,0,1,0.448,1,1c0,0.198-0.059,0.391-0.168,0.555
			l-1.227,1.84c-0.186,0.278-0.498,0.445-0.832,0.445h-5.33c-0.334,0-0.646-0.167-0.832-0.445l-1.227-1.84
			C7.47,2.075,7.595,1.455,8.054,1.148C8.218,1.039,8.411,0.98,8.608,0.98z"/>
		<path fill="#30394F" d="M15.165,5.32h-5.33c-0.502,0-0.969-0.25-1.248-0.667L7.36,2.812c-0.458-0.687-0.272-1.62,0.416-2.08
			C8.023,0.567,8.312,0.48,8.608,0.48h7.783c0.827,0,1.5,0.673,1.5,1.5c0,0.297-0.087,0.585-0.252,0.832l-1.227,1.84
			C16.134,5.071,15.667,5.32,15.165,5.32z M8.608,1.48c-0.099,0-0.195,0.029-0.277,0.084C8.102,1.717,8.04,2.028,8.192,2.257
			l1.227,1.84C9.512,4.237,9.667,4.32,9.835,4.32h5.33c0.167,0,0.323-0.083,0.416-0.223l1.227-1.84
			c0.055-0.083,0.084-0.178,0.084-0.277c0-0.276-0.225-0.5-0.5-0.5H8.608z"/>
	</g>
</g>
</svg>
