<?xml version="1.0" encoding="utf-8"?>
<!-- Generator: Adobe Illustrator 24.2.1, SVG Export Plug-In . SVG Version: 6.00 Build 0)  -->
<svg version="1.1" id="Camada_1" xmlns="http://www.w3.org/2000/svg" xmlns:xlink="http://www.w3.org/1999/xlink" x="0px" y="0px"
	 viewBox="0 0 20.1 17.9" style="enable-background:new 0 0 20.1 17.9;" xml:space="preserve">
<style type="text/css">
	.st0{fill:#21303E;}
</style>
<desc>Created with Sketch.</desc>
<g id="Page-1">
	<g id="_x30_1c_x5F_home_x5F_pathology" transform="translate(-235.000000, -304.000000)">
		<g id="GROUP-MALNUTRITION" transform="translate(235.000000, 304.000000)">
			<g id="BALANCE" transform="translate(41.000000, 16.000000)">
				<g id="Group">
					<path id="Shape" class="st0" d="M-30.9-16c-0.4,0-0.7,0.3-0.7,0.7v0.8c-0.8,0.5-1.6,0.8-2.4,0.8c-1,0-2.1-0.1-3.2-0.6
						c-0.1,0-0.3-0.1-0.4-0.1c-0.3,0-0.5,0.2-0.6,0.4l-2.7,6.2c0,0.1-0.1,0.2-0.1,0.3c0,1.8,1.5,3.3,3.3,3.3s3.3-1.5,3.3-3.3
						c0-0.1,0-0.2-0.1-0.3l-2.1-4.9c0.8,0.2,1.6,0.3,2.4,0.3c0.9,0,1.7-0.2,2.4-0.6v10.8H-36c0,0,0,0-0.1,0c-0.3,0-0.6,0.3-0.6,0.7
						v2.7c0,0.3,0.3,0.7,0.7,0.7h9.8c0.3,0,0.7-0.3,0.7-0.7v-2.7c0-0.3-0.3-0.7-0.7-0.7h-4.2v-10.9c0.8,0.4,1.6,0.6,2.4,0.6
						c0.7,0,1.5-0.1,2.4-0.3l-2.1,4.9c0,0.1-0.1,0.2-0.1,0.3c0,1.8,1.5,3.3,3.3,3.3c1.8,0,3.6-1.4,3.6-3.3c0-0.1,0-0.2-0.1-0.3
						l-2.6-6.2c-0.1-0.2-0.3-0.4-0.6-0.4c-0.1,0-0.3,0-0.4,0.1c-1.1,0.4-2.2,0.6-3.2,0.6c-0.9,0-1.7-0.3-2.4-0.8v-0.8
						C-30.2-15.7-30.6-16-30.9-16z M-37.6-12.1l1.7,3.9h-3.3L-37.6-12.1z M-24.2-12.1l1.7,3.9h-3.4L-24.2-12.1z M-39.4-6.9h3.7
						c-0.3,0.8-1,1.3-1.9,1.3C-38.4-5.6-39.2-6.1-39.4-6.9z M-26.1-6.9h3.7c-0.3,0.8-1,1.3-1.9,1.3C-25.1-5.6-25.8-6.1-26.1-6.9z
						 M-35.1-0.9h8.4v1.3h-8.4V-0.9z"/>
				</g>
			</g>
		</g>
	</g>
</g>
</svg>
