<svg xmlns="http://www.w3.org/2000/svg" viewBox="0 0 119.25 97.3"><defs><style>.cls-1{fill:#fff;}.cls-2{fill:#16145f;}</style></defs><title>Vitaflo_Logo</title><g id="Layer_2" data-name="Layer 2"><g id="Layer_1-2" data-name="Layer 1"><path class="cls-1" d="M59.63,62.92A31.46,31.46,0,1,1,91.09,31.46,31.5,31.5,0,0,1,59.63,62.92"/><path class="cls-2" d="M87.56,31.46A28.13,28.13,0,1,1,59.43,3.15,28.23,28.23,0,0,1,87.56,31.46"/><path class="cls-1" d="M62.41,28.84h1.35c-1.43,3.86-2.91,7.65-4.35,11.49-.44-.92-.74-1.9-1.13-2.84-.74-1.89-1.43-3.81-2.17-5.74-.37-1-.75-1.91-1.1-2.87,0,0,0-.06,0-.07h1.33c1,2.72,2,5.41,3,8.13.56-1.31,1-2.68,1.55-4s1-2.73,1.5-4.06"/><path class="cls-1" d="M66.41,32.88c.3,0,.84,0,1.19,0V34H66.43c-.05,1.84,0,3.78,0,5.67H65.22c0-1.85,0-3.79,0-5.67h-.67c-.06-.37,0-.73,0-1.11a4.85,4.85,0,0,1,.67,0c0-.73,0-1.56,0-2.32a.07.07,0,0,1,0-.07h1.17v2.39"/><path class="cls-1" d="M62.68,32.88c.38,0,.83,0,1.17,0v6.78H62.66c0-2.2,0-4.5,0-6.73a.07.07,0,0,1,0-.07"/><path class="cls-1" d="M59.23,30.51a1,1,0,0,1,.94,1.58,1,1,0,0,1-1.77-.56.94.94,0,0,1,.83-1"/><path class="cls-1" d="M78.11,27.78V29c-.5-.2-1.27-.27-1.52.16a4.17,4.17,0,0,0-.16,1.78v1.94c.52.06,1.13,0,1.68,0V34H76.45c-.06,1.84,0,3.83,0,5.67H75.24c0-1.85,0-3.79,0-5.67a3,3,0,0,1-.61,0V32.9h.58c.08-1.18,0-2.45.07-3.45A1.81,1.81,0,0,1,77,27.64a2.93,2.93,0,0,1,1.14.14"/><path class="cls-1" d="M78.58,27.82h1.17V39.68H78.56V27.89s0-.06,0-.07"/><path class="cls-1" d="M83.82,32.71a3.57,3.57,0,1,0,3.54,3.56,3.56,3.56,0,0,0-3.54-3.56m2.32,4a2.34,2.34,0,0,1-4.66-.52,2.41,2.41,0,0,1,.45-1.38,2.09,2.09,0,0,1,1.61-1,2.29,2.29,0,0,1,1.86.59A2.57,2.57,0,0,1,86.14,36.72Z"/><path class="cls-1" d="M70.1,38.64A2.19,2.19,0,0,0,73,36.56c.12-1.6-.77-2.88-2.42-2.71A2.12,2.12,0,0,0,70,34a2.39,2.39,0,0,0-1.32,2.26,2.42,2.42,0,0,0,1.43,2.39M73,32.9h1.19v6.78H73v-.86c-.29.2-.51.49-.83.68a3.22,3.22,0,0,1-3.79-.66c-1.68-1.92-.92-5.86,1.93-6.12A3,3,0,0,1,73,33.81Z"/><path class="cls-2" d="M4.68,81.73h.58l2.55,5.74H7l-.76-1.69H3.79l-.72,1.69H2.23Zm1.2,3.32L5,83l-.85,2.06Z"/><path class="cls-2" d="M15.13,81.77h.77v5.7h-.7l-3.81-4.39v4.39h-.77v-5.7h.66l3.85,4.43Z"/><path class="cls-2" d="M20.14,85.66H17.5a1.21,1.21,0,0,0,.36.85,1.16,1.16,0,0,0,.86.32,2.24,2.24,0,0,0,1.35-.45v.72a2.66,2.66,0,0,1-.68.33,3,3,0,0,1-.79.1,1.77,1.77,0,0,1-1-.26,1.88,1.88,0,0,1-.62-.69,2.18,2.18,0,0,1-.23-1,2,2,0,0,1,.49-1.39,1.61,1.61,0,0,1,1.26-.54,1.49,1.49,0,0,1,1.19.52,2.08,2.08,0,0,1,.45,1.4Zm-2.63-.45H19.4a1,1,0,0,0-.26-.68.86.86,0,0,0-.64-.24.9.9,0,0,0-.65.24A1.19,1.19,0,0,0,17.51,85.21Z"/><path class="cls-2" d="M20.68,87.2v-.8a3.15,3.15,0,0,0,.64.36,1.48,1.48,0,0,0,.55.13.65.65,0,0,0,.4-.11.34.34,0,0,0,.17-.27.41.41,0,0,0-.11-.28,2.84,2.84,0,0,0-.47-.31,3.18,3.18,0,0,1-.94-.68,1,1,0,0,1-.22-.62.87.87,0,0,1,.34-.71,1.32,1.32,0,0,1,.86-.27A2.32,2.32,0,0,1,23,84v.74a2.22,2.22,0,0,0-1.08-.4.63.63,0,0,0-.35.09.29.29,0,0,0-.13.24.35.35,0,0,0,.12.25,2.39,2.39,0,0,0,.42.29l.27.15c.63.35.94.74.94,1.17a.94.94,0,0,1-.36.76,1.4,1.4,0,0,1-.93.3,2.23,2.23,0,0,1-.6-.08A3.22,3.22,0,0,1,20.68,87.2Z"/><path class="cls-2" d="M23.47,84.31l1.39-1.37v.77h1.19v.67H24.86v1.84c0,.43.18.65.54.65a1.65,1.65,0,0,0,.84-.27v.69a1.88,1.88,0,0,1-.93.25,1.23,1.23,0,0,1-.85-.3,1.12,1.12,0,0,1-.18-.2,1.46,1.46,0,0,1-.11-.3,2.71,2.71,0,0,1-.05-.69V84.38h-.65Z"/><path class="cls-2" d="M26.71,81.77h.74v5.7h-.74Z"/><path class="cls-2" d="M31.64,85.66H29a1.21,1.21,0,0,0,.36.85,1.16,1.16,0,0,0,.86.32,2.29,2.29,0,0,0,1.36-.45v.72a2.82,2.82,0,0,1-.68.33,3.1,3.1,0,0,1-.79.1,1.8,1.8,0,0,1-1-.26,1.86,1.86,0,0,1-.61-.69,2.18,2.18,0,0,1-.23-1,2,2,0,0,1,.48-1.39A1.64,1.64,0,0,1,30,83.64a1.52,1.52,0,0,1,1.19.52,2.13,2.13,0,0,1,.44,1.4ZM29,85.21h1.89a1,1,0,0,0-.27-.68.85.85,0,0,0-.63-.24.92.92,0,0,0-.66.24A1.18,1.18,0,0,0,29,85.21Zm1.81-3.53-.92,1.22h-.46L30,81.68Z"/><path class="cls-2" d="M38.73,81.77h.81v5.7h-.81V85H35.52v2.48h-.81v-5.7h.81v2.46h3.21Z"/><path class="cls-2" d="M43.81,85.66H41.17a1.21,1.21,0,0,0,.36.85,1.18,1.18,0,0,0,.86.32,2.26,2.26,0,0,0,1.36-.45v.72a2.82,2.82,0,0,1-.68.33,3,3,0,0,1-.79.1,1.82,1.82,0,0,1-1-.26,1.86,1.86,0,0,1-.61-.69,2.18,2.18,0,0,1-.23-1,2,2,0,0,1,.49-1.39,1.61,1.61,0,0,1,1.26-.54,1.51,1.51,0,0,1,1.19.52,2.08,2.08,0,0,1,.44,1.4Zm-2.62-.45h1.89a1,1,0,0,0-.27-.68.84.84,0,0,0-.63-.24.92.92,0,0,0-.66.24A1.18,1.18,0,0,0,41.19,85.21Z"/><path class="cls-2" d="M46.89,85.21v1.6c0,.13,0,.19.13.19a1,1,0,0,0,.43-.2v.45a2.69,2.69,0,0,1-.41.23.87.87,0,0,1-.32.06c-.32,0-.51-.13-.56-.38a1.68,1.68,0,0,1-1,.37.93.93,0,0,1-.66-.26.91.91,0,0,1-.26-.65.93.93,0,0,1,.26-.64,1.8,1.8,0,0,1,.72-.44l.95-.33V85a.6.6,0,0,0-.67-.68A1.65,1.65,0,0,0,44.3,85v-.81a1.56,1.56,0,0,1,1.25-.51,1.44,1.44,0,0,1,1,.32,1,1,0,0,1,.22.27,1,1,0,0,1,.13.34A4.93,4.93,0,0,1,46.89,85.21Zm-.73,1.52V85.61l-.49.19a1.59,1.59,0,0,0-.54.31.49.49,0,0,0-.16.38.5.5,0,0,0,.15.38.53.53,0,0,0,.39.15A.94.94,0,0,0,46.16,86.73Z"/><path class="cls-2" d="M48,81.77h.74v5.7H48Z"/><path class="cls-2" d="M49.24,84.31l1.4-1.37v.77h1.19v.67H50.64v1.84c0,.43.18.65.53.65A1.65,1.65,0,0,0,52,86.6v.69a1.91,1.91,0,0,1-.94.25,1.24,1.24,0,0,1-.85-.3.79.79,0,0,1-.17-.2,1,1,0,0,1-.12-.3,3.53,3.53,0,0,1,0-.69V84.38h-.66Z"/><path class="cls-2" d="M52.45,81.77h.75v2.44a1.42,1.42,0,0,1,1.15-.57,1.22,1.22,0,0,1,.68.19,1.18,1.18,0,0,1,.44.52,2.51,2.51,0,0,1,.14,1v2.14h-.74V85.15a1.07,1.07,0,0,0-.2-.67.67.67,0,0,0-.53-.25.88.88,0,0,0-.47.13,1.89,1.89,0,0,0-.47.42v2.69h-.75Z"/><path class="cls-2" d="M60.32,85.08l-.62-.38a2.64,2.64,0,0,1-.83-.7,1.28,1.28,0,0,1-.25-.79,1.42,1.42,0,0,1,.47-1.1,1.75,1.75,0,0,1,1.21-.42,2.33,2.33,0,0,1,1.31.4V83a1.9,1.9,0,0,0-1.32-.59,1.12,1.12,0,0,0-.66.18.58.58,0,0,0-.26.48.77.77,0,0,0,.19.48,2.58,2.58,0,0,0,.61.47l.63.37a1.82,1.82,0,0,1,1,1.58,1.46,1.46,0,0,1-.46,1.12,1.7,1.7,0,0,1-1.19.43A2.53,2.53,0,0,1,58.65,87V86a1.92,1.92,0,0,0,1.53.84.94.94,0,0,0,.64-.22.66.66,0,0,0,.25-.53Q61.07,85.55,60.32,85.08Z"/><path class="cls-2" d="M65.37,86.59v.74a3.11,3.11,0,0,1-1.1.21,1.82,1.82,0,0,1-1.93-1.93,2,2,0,0,1,.51-1.43,1.77,1.77,0,0,1,1.35-.54,2.12,2.12,0,0,1,.52.06,3,3,0,0,1,.57.2v.79a2,2,0,0,0-1.05-.36,1,1,0,0,0-.82.36,1.24,1.24,0,0,0-.32.9,1.21,1.21,0,0,0,.34.91,1.3,1.3,0,0,0,1,.34A2.4,2.4,0,0,0,65.37,86.59Z"/><path class="cls-2" d="M66.51,82.13a.46.46,0,0,1,.32.13.43.43,0,0,1,0,.62.42.42,0,0,1-.32.13.41.41,0,0,1-.3-.13.42.42,0,0,1,0-.61A.42.42,0,0,1,66.51,82.13Zm-.36,1.58h.74v3.76h-.74Z"/><path class="cls-2" d="M71.08,85.66H68.44a1.21,1.21,0,0,0,.36.85,1.16,1.16,0,0,0,.86.32A2.29,2.29,0,0,0,71,86.38v.72a2.82,2.82,0,0,1-.68.33,3.1,3.1,0,0,1-.79.1,1.8,1.8,0,0,1-1-.26,1.78,1.78,0,0,1-.61-.69,2.06,2.06,0,0,1-.23-1,2,2,0,0,1,.48-1.39,1.63,1.63,0,0,1,1.26-.54,1.53,1.53,0,0,1,1.2.52,2.13,2.13,0,0,1,.44,1.4Zm-2.62-.45h1.89a1,1,0,0,0-.27-.68.86.86,0,0,0-.64-.24.92.92,0,0,0-.65.24A1.18,1.18,0,0,0,68.46,85.21Z"/><path class="cls-2" d="M72.54,83.71v.48a1.5,1.5,0,0,1,1.14-.55,1.25,1.25,0,0,1,.65.18,1.23,1.23,0,0,1,.46.5,2.49,2.49,0,0,1,.15,1v2.15H74.2V85.33a1.52,1.52,0,0,0-.17-.82.67.67,0,0,0-.59-.25,1.09,1.09,0,0,0-.9.53v2.68h-.75V83.71Z"/><path class="cls-2" d="M78.72,86.59v.74a3.15,3.15,0,0,1-1.1.21A1.91,1.91,0,0,1,76.21,87a1.88,1.88,0,0,1-.52-1.4,2,2,0,0,1,.51-1.43,1.76,1.76,0,0,1,1.34-.54,2,2,0,0,1,.52.06,2.62,2.62,0,0,1,.57.2v.79a1.94,1.94,0,0,0-1-.36,1.07,1.07,0,0,0-.83.36,1.29,1.29,0,0,0-.32.9,1.21,1.21,0,0,0,.35.91,1.28,1.28,0,0,0,.94.34A2.4,2.4,0,0,0,78.72,86.59Z"/><path class="cls-2" d="M82.68,85.66H80a1.21,1.21,0,0,0,.36.85,1.16,1.16,0,0,0,.86.32,2.24,2.24,0,0,0,1.35-.45v.72a2.66,2.66,0,0,1-.68.33,3,3,0,0,1-.79.1,1.77,1.77,0,0,1-1-.26,1.88,1.88,0,0,1-.62-.69,2.18,2.18,0,0,1-.23-1,2,2,0,0,1,.49-1.39A1.61,1.61,0,0,1,81,83.64a1.49,1.49,0,0,1,1.19.52,2.08,2.08,0,0,1,.45,1.4Zm-2.63-.45h1.89a1,1,0,0,0-.26-.68.86.86,0,0,0-.64-.24.9.9,0,0,0-.65.24A1.19,1.19,0,0,0,80.05,85.21Z"/><path class="cls-2" d="M90.65,86.15v.9a4.31,4.31,0,0,1-2.07.49A3.13,3.13,0,0,1,87,87.15a2.92,2.92,0,0,1-1.44-2.51,2.77,2.77,0,0,1,.89-2.1,3.07,3.07,0,0,1,2.19-.85,5.15,5.15,0,0,1,2,.47V83a3.92,3.92,0,0,0-2-.57,2.27,2.27,0,0,0-1.63.62,2.17,2.17,0,0,0,0,3.09,2.29,2.29,0,0,0,1.63.6A3.69,3.69,0,0,0,90.65,86.15Z"/><path class="cls-2" d="M93.27,83.71a1.93,1.93,0,0,1,1.42.55,1.85,1.85,0,0,1,.57,1.39A1.78,1.78,0,0,1,94.69,87a2.05,2.05,0,0,1-1.45.54A2,2,0,0,1,91.82,87a1.94,1.94,0,0,1,0-2.74A2,2,0,0,1,93.27,83.71Zm0,.67a1.15,1.15,0,0,0-.88.35,1.21,1.21,0,0,0-.34.89,1.19,1.19,0,0,0,.35.88,1.21,1.21,0,0,0,.9.34,1.23,1.23,0,0,0,.9-.34,1.21,1.21,0,0,0,.35-.89,1.15,1.15,0,0,0-.37-.88A1.22,1.22,0,0,0,93.23,84.38Z"/><path class="cls-2" d="M99.08,84.74v2.73h-.75V85.38a1.64,1.64,0,0,0-.16-.87.66.66,0,0,0-.59-.25.88.88,0,0,0-.42.11,1.88,1.88,0,0,0-.45.37v2.73H96V83.71h.74v.5a1.62,1.62,0,0,1,1.11-.57,1.23,1.23,0,0,1,1.11.68,1.67,1.67,0,0,1,1.24-.69,1.15,1.15,0,0,1,.9.4,1.8,1.8,0,0,1,.36,1.22v2.22h-.74V85.25a1.12,1.12,0,0,0-.2-.72.64.64,0,0,0-.55-.25A1.13,1.13,0,0,0,99.08,84.74Z"/><path class="cls-2" d="M102.32,89.38V83.71h1.3a2.26,2.26,0,0,1,1.55.5,1.78,1.78,0,0,1,.56,1.39,1.9,1.9,0,0,1-.52,1.39,1.8,1.8,0,0,1-1.34.55,2.47,2.47,0,0,1-.79-.16v2Zm1.28-5h-.52v2.31a1.46,1.46,0,0,0,.71.17,1.12,1.12,0,0,0,.86-.36,1.32,1.32,0,0,0,.33-.93,1.23,1.23,0,0,0-.16-.65.9.9,0,0,0-.43-.41A1.82,1.82,0,0,0,103.6,84.41Z"/><path class="cls-2" d="M108.82,85.21v1.6c0,.13.05.19.13.19a.93.93,0,0,0,.42-.2v.45a2.69,2.69,0,0,1-.4.23.91.91,0,0,1-.32.06.51.51,0,0,1-.57-.38,1.63,1.63,0,0,1-1,.37.89.89,0,0,1-.91-.91.93.93,0,0,1,.26-.64,1.8,1.8,0,0,1,.72-.44l1-.33V85a.6.6,0,0,0-.68-.68,1.63,1.63,0,0,0-1.18.63v-.81a1.54,1.54,0,0,1,1.25-.51,1.44,1.44,0,0,1,1,.32,1,1,0,0,1,.22.27,1,1,0,0,1,.13.34C108.81,84.68,108.82,84.9,108.82,85.21Zm-.73,1.52V85.61l-.5.19a1.63,1.63,0,0,0-.53.31.49.49,0,0,0-.16.38.5.5,0,0,0,.15.38.52.52,0,0,0,.38.15A1,1,0,0,0,108.09,86.73Z"/><path class="cls-2" d="M110.69,83.71v.48a1.48,1.48,0,0,1,1.13-.55,1.22,1.22,0,0,1,.65.18,1.11,1.11,0,0,1,.46.5,2.3,2.3,0,0,1,.16,1v2.15h-.74V85.33a1.42,1.42,0,0,0-.18-.82.65.65,0,0,0-.59-.25,1.08,1.08,0,0,0-.89.53v2.68h-.76V83.71Z"/><path class="cls-2" d="M116.18,83.71H117l-2.66,5.67h-.83l1.27-2.72-1.45-3h.85l1,2.13Z"/><path class="cls-2" d="M2.06,92.16a2,2,0,0,1,1,.28,2,2,0,0,1,.76.75,2.06,2.06,0,0,1,.27,1,2,2,0,0,1-.27,1,2.07,2.07,0,0,1-.75.75,2.06,2.06,0,0,1-1,.27,2.06,2.06,0,0,1-1.79-1,2,2,0,0,1-.27-1,1.94,1.94,0,0,1,.28-1A1.93,1.93,0,0,1,1,92.44,2,2,0,0,1,2.06,92.16Zm0,.34A1.62,1.62,0,0,0,.85,93a1.7,1.7,0,0,0,0,2.41,1.61,1.61,0,0,0,1.21.5,1.64,1.64,0,0,0,1.21-.5,1.64,1.64,0,0,0,.5-1.2A1.62,1.62,0,0,0,3.26,93,1.61,1.61,0,0,0,2.06,92.5Zm-.47,2.82H1.24V93.11H2a1.87,1.87,0,0,1,.57.06.64.64,0,0,1,.27.22.53.53,0,0,1,.1.32.54.54,0,0,1-.18.42.63.63,0,0,1-.45.2.71.71,0,0,1,.24.17,3,3,0,0,1,.27.39l.27.43H2.66L2.46,95a2,2,0,0,0-.33-.48.49.49,0,0,0-.33-.11H1.59Zm0-1.91v.66H2a.7.7,0,0,0,.4-.08.26.26,0,0,0,.13-.25.29.29,0,0,0-.12-.26A1,1,0,0,0,2,93.41Z"/><path class="cls-2" d="M6,96v-3.8H7a1.36,1.36,0,0,1,.91.28,1,1,0,0,1,.34.78,1,1,0,0,1-.17.57,1,1,0,0,1-.47.36,1.53,1.53,0,0,1,.35.33,6.41,6.41,0,0,1,.49.72c.14.22.24.38.32.49l.2.27H8.28l-.17-.25,0,0L8,95.57,7.8,95.3,7.62,95a2.07,2.07,0,0,0-.31-.37,1,1,0,0,0-.25-.2.85.85,0,0,0-.38-.07H6.54V96Zm.71-3.34H6.54v1.2h.2a1.47,1.47,0,0,0,.57-.07.61.61,0,0,0,.24-.21.63.63,0,0,0,.09-.33.51.51,0,0,0-.1-.32.48.48,0,0,0-.27-.21A1.87,1.87,0,0,0,6.7,92.68Z"/><path class="cls-2" d="M11.35,94.81H9.59a.79.79,0,0,0,.24.57.82.82,0,0,0,.58.22,1.53,1.53,0,0,0,.9-.31v.48a1.34,1.34,0,0,1-.45.22,1.7,1.7,0,0,1-.53.07,1.21,1.21,0,0,1-.67-.17,1.25,1.25,0,0,1-.41-.47,1.41,1.41,0,0,1-.15-.67,1.36,1.36,0,0,1,.32-.93,1.12,1.12,0,0,1,.84-.35,1,1,0,0,1,.8.35,1.42,1.42,0,0,1,.29.93Zm-1.75-.3h1.26a.68.68,0,0,0-.17-.45.66.66,0,0,0-.86,0A.78.78,0,0,0,9.6,94.51Z"/><path class="cls-2" d="M11.71,94.38a.73.73,0,0,1,.29-.63,1.21,1.21,0,0,1,.8-.23h1v.38h-.51a1.1,1.1,0,0,1,.21.27.87.87,0,0,1,.05.28.7.7,0,0,1-.11.39.74.74,0,0,1-.29.29,1.58,1.58,0,0,1-.57.16c-.19,0-.28.09-.28.19a.17.17,0,0,0,.1.15,2.39,2.39,0,0,0,.38.11,4.32,4.32,0,0,1,.6.16.87.87,0,0,1,.23.16.61.61,0,0,1,.18.45.65.65,0,0,1-.31.57,1.47,1.47,0,0,1-.85.22,1.56,1.56,0,0,1-.86-.22.66.66,0,0,1-.32-.57q0-.51.63-.66c-.17-.1-.25-.21-.25-.31a.29.29,0,0,1,.11-.22.62.62,0,0,1,.29-.15A.81.81,0,0,1,11.71,94.38Zm.81,1.76a.73.73,0,0,0-.41.1.31.31,0,0,0-.16.27c0,.26.23.39.7.39a1,1,0,0,0,.51-.1.29.29,0,0,0,.18-.27c0-.11-.08-.21-.23-.28A1.27,1.27,0,0,0,12.52,96.14ZM12.64,94a.49.49,0,0,0-.35.13.45.45,0,0,0-.14.33.43.43,0,0,0,.14.32.57.57,0,0,0,.7,0,.45.45,0,0,0,.14-.33.42.42,0,0,0-.14-.32A.48.48,0,0,0,12.64,94Z"/><path class="cls-2" d="M14.41,95.41a.33.33,0,1,1,0,.65.32.32,0,0,1-.23-.09.31.31,0,0,1,0-.46A.29.29,0,0,1,14.41,95.41Z"/><path class="cls-2" d="M15.3,92.21h3.18v.49H17.16V96h-.55V92.7H15.3Z"/><path class="cls-2" d="M18.71,93.52v.57l0,0c.24-.39.48-.58.72-.58a.89.89,0,0,1,.59.28l-.27.44a.71.71,0,0,0-.47-.25.53.53,0,0,0-.42.23.83.83,0,0,0-.17.54V96h-.5v-2.5Z"/><path class="cls-2" d="M21.9,94.51v1.07c0,.08,0,.13.09.13a.63.63,0,0,0,.28-.14v.31A1.78,1.78,0,0,1,22,96a.54.54,0,0,1-.22,0c-.21,0-.34-.08-.37-.25a1.06,1.06,0,0,1-.68.25.58.58,0,0,1-.43-.18.55.55,0,0,1-.18-.43.61.61,0,0,1,.17-.42,1.14,1.14,0,0,1,.49-.3l.63-.22v-.13a.4.4,0,0,0-.45-.45,1.1,1.1,0,0,0-.79.42v-.54a1,1,0,0,1,.83-.34,1,1,0,0,1,.65.21.55.55,0,0,1,.15.18.7.7,0,0,1,.08.23A3.32,3.32,0,0,1,21.9,94.51Zm-.49,1v-.74l-.33.13a1.14,1.14,0,0,0-.36.2.34.34,0,0,0-.1.26.33.33,0,0,0,.1.25.36.36,0,0,0,.25.1A.62.62,0,0,0,21.41,95.52Z"/><path class="cls-2" d="M24.32,92.22h.5V96H23.76a1.18,1.18,0,0,1-.89-.35,1.33,1.33,0,0,1-.33-.94,1.26,1.26,0,0,1,.35-.91,1.18,1.18,0,0,1,.89-.36,1.67,1.67,0,0,1,.54.11Zm0,3.38V94a1,1,0,0,0-.47-.12.78.78,0,0,0-.59.24,1,1,0,0,0-.22.66.89.89,0,0,0,.19.59.56.56,0,0,0,.25.17,1.47,1.47,0,0,0,.46,0Z"/><path class="cls-2" d="M27.57,94.81H25.81a.79.79,0,0,0,.24.57.81.81,0,0,0,.57.22,1.49,1.49,0,0,0,.9-.31v.48a1.34,1.34,0,0,1-.45.22,1.66,1.66,0,0,1-.53.07,1.2,1.2,0,0,1-.66-.17,1.17,1.17,0,0,1-.41-.47,1.3,1.3,0,0,1-.16-.67,1.32,1.32,0,0,1,.33-.93,1.09,1.09,0,0,1,.84-.35,1,1,0,0,1,.79.35,1.37,1.37,0,0,1,.3.93Zm-1.75-.3h1.26a.64.64,0,0,0-.18-.45.55.55,0,0,0-.42-.16.6.6,0,0,0-.44.16A.77.77,0,0,0,25.82,94.51Z"/><path class="cls-2" d="M30.1,94.2V96h-.5V94.63a1.08,1.08,0,0,0-.11-.59.45.45,0,0,0-.39-.16.53.53,0,0,0-.28.07,1.23,1.23,0,0,0-.3.25V96H28v-2.5h.49v.33a1,1,0,0,1,.74-.38.81.81,0,0,1,.74.45,1.1,1.1,0,0,1,.83-.46.77.77,0,0,1,.6.27,1.19,1.19,0,0,1,.24.81V96h-.5V94.54a.74.74,0,0,0-.13-.48.44.44,0,0,0-.37-.17A.75.75,0,0,0,30.1,94.2Z"/><path class="cls-2" d="M33.86,94.51v1.07c0,.08,0,.13.09.13a.63.63,0,0,0,.28-.14v.31A1.17,1.17,0,0,1,34,96a.52.52,0,0,1-.21,0c-.22,0-.34-.08-.38-.25a1,1,0,0,1-.67.25.59.59,0,0,1-.44-.18.58.58,0,0,1-.17-.43.57.57,0,0,1,.17-.42,1,1,0,0,1,.48-.3l.64-.22v-.13a.4.4,0,0,0-.46-.45,1.1,1.1,0,0,0-.79.42v-.54a1,1,0,0,1,.83-.34,1,1,0,0,1,.66.21.54.54,0,0,1,.14.18.53.53,0,0,1,.08.23A2.08,2.08,0,0,1,33.86,94.51Zm-.48,1v-.74l-.34.13a1.07,1.07,0,0,0-.35.2.35.35,0,0,0-.11.26.33.33,0,0,0,.1.25.38.38,0,0,0,.26.1A.66.66,0,0,0,33.38,95.52Z"/><path class="cls-2" d="M35.14,93.52v.57l0,0c.24-.39.48-.58.72-.58a.85.85,0,0,1,.58.28l-.26.44a.7.7,0,0,0-.48-.25.52.52,0,0,0-.41.23.84.84,0,0,0-.18.54V96h-.49v-2.5Z"/><path class="cls-2" d="M36.76,92.22h.5V96h-.5Zm1.63,1.3H39l-1.07,1.22L39.2,96h-.66l-1.26-1.28Z"/><path class="cls-2" d="M39.26,95.84v-.53a2.91,2.91,0,0,0,.42.23.89.89,0,0,0,.37.1.46.46,0,0,0,.27-.08.22.22,0,0,0,.11-.18.21.21,0,0,0-.07-.18,1.56,1.56,0,0,0-.31-.21,2.2,2.2,0,0,1-.63-.46.63.63,0,0,1-.15-.41.58.58,0,0,1,.23-.47.89.89,0,0,1,.58-.18,1.69,1.69,0,0,1,.75.2v.49a1.58,1.58,0,0,0-.72-.26.37.37,0,0,0-.23.06.18.18,0,0,0-.09.16.22.22,0,0,0,.08.17,1.43,1.43,0,0,0,.28.19l.18.1c.41.23.62.49.62.78a.64.64,0,0,1-.24.51,1,1,0,0,1-.62.19,1.64,1.64,0,0,1-.4,0A3.11,3.11,0,0,1,39.26,95.84Z"/><path class="cls-2" d="M44.16,93.51a1.29,1.29,0,0,1,1,.37,1.25,1.25,0,0,1,.38.93,1.17,1.17,0,0,1-.39.9,1.38,1.38,0,0,1-1,.35,1.34,1.34,0,0,1-1-.36,1.21,1.21,0,0,1-.37-.91,1.19,1.19,0,0,1,.38-.91A1.3,1.3,0,0,1,44.16,93.51Zm0,.45a.75.75,0,0,0-.58.23.81.81,0,0,0-.23.6.75.75,0,0,0,.23.58.85.85,0,0,0,.6.23.83.83,0,0,0,.6-.23.77.77,0,0,0,.23-.59.79.79,0,0,0-.24-.59A.81.81,0,0,0,44.13,94Z"/><path class="cls-2" d="M46,93.52v-.15a1.33,1.33,0,0,1,.25-.9.79.79,0,0,1,.62-.3,1.9,1.9,0,0,1,.37,0v.48a.66.66,0,0,0-.23,0,.49.49,0,0,0-.41.15,1.07,1.07,0,0,0-.11.56v.15H47V94h-.45V96H46V94h-.36v-.44Z"/><path class="cls-2" d="M49.82,94.43l-.41-.25a2,2,0,0,1-.56-.47.9.9,0,0,1-.16-.53.93.93,0,0,1,.31-.73,1.16,1.16,0,0,1,.81-.28,1.49,1.49,0,0,1,.87.27v.61a1.26,1.26,0,0,0-.88-.39.74.74,0,0,0-.44.12.39.39,0,0,0-.17.32.51.51,0,0,0,.12.32,1.67,1.67,0,0,0,.41.31l.42.25a1.21,1.21,0,0,1,.69,1,1,1,0,0,1-.3.75,1.13,1.13,0,0,1-.8.28,1.68,1.68,0,0,1-1-.34V95a1.29,1.29,0,0,0,1,.55.62.62,0,0,0,.43-.14.44.44,0,0,0,.17-.35C50.32,94.85,50.15,94.63,49.82,94.43Z"/><path class="cls-2" d="M52.5,93.51a1.27,1.27,0,0,1,1,.37,1.21,1.21,0,0,1,.38.93,1.17,1.17,0,0,1-.38.9,1.41,1.41,0,0,1-1,.35,1.31,1.31,0,0,1-.94-.36,1.28,1.28,0,0,1,0-1.82A1.33,1.33,0,0,1,52.5,93.51Zm0,.45a.77.77,0,0,0-.59.23.85.85,0,0,0-.23.6.75.75,0,0,0,.24.58.81.81,0,0,0,.6.23.85.85,0,0,0,.6-.23.81.81,0,0,0,.23-.59.79.79,0,0,0-.24-.59A.83.83,0,0,0,52.48,94Z"/><path class="cls-2" d="M56.2,95.43v.49a1.88,1.88,0,0,1-.72.14,1.2,1.2,0,0,1-1.29-1.28,1.32,1.32,0,0,1,.34-1,1.15,1.15,0,0,1,.89-.36,1.83,1.83,0,0,1,.35,0,2.67,2.67,0,0,1,.38.14v.53a1.31,1.31,0,0,0-.7-.24.72.72,0,0,0-.55.24.84.84,0,0,0-.21.6.81.81,0,0,0,.23.6.85.85,0,0,0,.63.23A1.61,1.61,0,0,0,56.2,95.43Z"/><path class="cls-2" d="M57,92.46a.29.29,0,0,1,.21.09.24.24,0,0,1,.08.2.28.28,0,0,1-.08.21.29.29,0,0,1-.21.09.27.27,0,0,1-.2-.09.29.29,0,0,1-.09-.21.28.28,0,0,1,.09-.2A.27.27,0,0,1,57,92.46Zm-.25,1.06h.5V96h-.5Z"/><path class="cls-2" d="M60,94.81H58.25a.79.79,0,0,0,.24.57.82.82,0,0,0,.58.22,1.53,1.53,0,0,0,.9-.31v.48a1.34,1.34,0,0,1-.45.22,1.7,1.7,0,0,1-.53.07,1.21,1.21,0,0,1-.67-.17,1.25,1.25,0,0,1-.41-.47,1.41,1.41,0,0,1-.15-.67,1.32,1.32,0,0,1,.32-.93,1.12,1.12,0,0,1,.84-.35,1,1,0,0,1,.8.35,1.42,1.42,0,0,1,.29.93Zm-1.75-.3h1.26a.68.68,0,0,0-.17-.45.57.57,0,0,0-.43-.16.61.61,0,0,0-.44.16A.83.83,0,0,0,58.26,94.51Zm1.21-2.35-.61.81h-.31l.37-.81Z"/><path class="cls-2" d="M60.14,93.91l.93-.91v.52h.79V94h-.79v1.23c0,.28.12.43.36.43a1.08,1.08,0,0,0,.56-.18v.46a1.22,1.22,0,0,1-.62.16.8.8,0,0,1-.57-.2.69.69,0,0,1-.11-.13.76.76,0,0,1-.08-.2,2.25,2.25,0,0,1,0-.46V94h-.44Z"/><path class="cls-2" d="M64.43,94.81H62.67a.79.79,0,0,0,.81.79,1.49,1.49,0,0,0,.9-.31v.48a1.34,1.34,0,0,1-.45.22,1.66,1.66,0,0,1-.53.07,1.26,1.26,0,0,1-.67-.17,1.23,1.23,0,0,1-.4-.47,1.3,1.3,0,0,1-.16-.67,1.32,1.32,0,0,1,.33-.93,1.09,1.09,0,0,1,.84-.35,1,1,0,0,1,.79.35,1.37,1.37,0,0,1,.3.93Zm-1.75-.3h1.26a.69.69,0,0,0-.18-.45.55.55,0,0,0-.42-.16.6.6,0,0,0-.44.16A.77.77,0,0,0,62.68,94.51Zm1.21-2.35-.62.81H63l.37-.81Z"/><path class="cls-2" d="M68.07,92.22h.5V96H67.51a1.2,1.2,0,0,1-.89-.35,1.38,1.38,0,0,1-.33-.94,1.26,1.26,0,0,1,.35-.91,1.18,1.18,0,0,1,.89-.36,1.62,1.62,0,0,1,.54.11Zm0,3.38V94a1,1,0,0,0-.47-.12.78.78,0,0,0-.59.24,1,1,0,0,0-.21.66.84.84,0,0,0,.19.59.49.49,0,0,0,.24.17,1.52,1.52,0,0,0,.46,0Z"/><path class="cls-2" d="M71.32,94.81H69.56a.79.79,0,0,0,.24.57.81.81,0,0,0,.57.22,1.54,1.54,0,0,0,.91-.31v.48a1.48,1.48,0,0,1-.46.22,1.64,1.64,0,0,1-.52.07,1.21,1.21,0,0,1-.67-.17,1.25,1.25,0,0,1-.41-.47,1.41,1.41,0,0,1-.16-.67,1.32,1.32,0,0,1,.33-.93,1.09,1.09,0,0,1,.84-.35,1,1,0,0,1,.79.35,1.37,1.37,0,0,1,.3.93Zm-1.75-.3h1.26a.64.64,0,0,0-.18-.45.54.54,0,0,0-.42-.16.61.61,0,0,0-.44.16A.77.77,0,0,0,69.57,94.51Z"/><path class="cls-2" d="M71.68,95.84v-.53a2.55,2.55,0,0,0,.43.23.86.86,0,0,0,.37.1.45.45,0,0,0,.26-.08.2.2,0,0,0,.11-.18.21.21,0,0,0-.07-.18,1.56,1.56,0,0,0-.31-.21,2.2,2.2,0,0,1-.63-.46.63.63,0,0,1-.15-.41.58.58,0,0,1,.23-.47.89.89,0,0,1,.58-.18,1.69,1.69,0,0,1,.75.2v.49a1.54,1.54,0,0,0-.72-.26.39.39,0,0,0-.23.06.18.18,0,0,0-.09.16.27.27,0,0,0,.08.17,1.84,1.84,0,0,0,.28.19l.18.1c.42.23.62.49.62.78a.64.64,0,0,1-.24.51.94.94,0,0,1-.62.19,1.51,1.51,0,0,1-.39,0A2.73,2.73,0,0,1,71.68,95.84Z"/><path class="cls-2" d="M75.42,96V92.21h1.2a1.21,1.21,0,0,1,.87.3,1,1,0,0,1,.33.79,1,1,0,0,1-.17.58.91.91,0,0,1-.45.37,2.28,2.28,0,0,1-.83.12H76V96Zm1.11-3.32H76v1.19h.59a.78.78,0,0,0,.51-.16.55.55,0,0,0,.18-.45C77.25,92.89,77,92.7,76.53,92.7Z"/><path class="cls-2" d="M78.7,93.52v.57l0,0c.24-.39.48-.58.72-.58a.87.87,0,0,1,.59.28l-.26.44a.75.75,0,0,0-.48-.25.53.53,0,0,0-.42.23.89.89,0,0,0-.17.54V96h-.5v-2.5Z"/><path class="cls-2" d="M81.38,93.51a1.3,1.3,0,0,1,1,.37,1.25,1.25,0,0,1,.38.93,1.17,1.17,0,0,1-.39.9,1.39,1.39,0,0,1-1,.35,1.33,1.33,0,0,1-.94-.36,1.21,1.21,0,0,1-.37-.91,1.19,1.19,0,0,1,.38-.91A1.3,1.3,0,0,1,81.38,93.51Zm0,.45a.78.78,0,0,0-.59.23.84.84,0,0,0-.22.6.75.75,0,0,0,.23.58.9.9,0,0,0,1.2,0,.81.81,0,0,0,.23-.59.79.79,0,0,0-.24-.59A.83.83,0,0,0,81.35,94Z"/><path class="cls-2" d="M84.87,92.22h.5V96H84.31a1.18,1.18,0,0,1-.89-.35,1.33,1.33,0,0,1-.33-.94,1.26,1.26,0,0,1,.35-.91,1.18,1.18,0,0,1,.89-.36,1.67,1.67,0,0,1,.54.11Zm0,3.38V94a1,1,0,0,0-.47-.12.78.78,0,0,0-.59.24,1,1,0,0,0-.22.66.89.89,0,0,0,.19.59.56.56,0,0,0,.25.17,1.47,1.47,0,0,0,.46,0Z"/><path class="cls-2" d="M87.58,96V95.7a1.54,1.54,0,0,1-.36.27,1,1,0,0,1-.41.09.82.82,0,0,1-.43-.12.62.62,0,0,1-.3-.32A1.53,1.53,0,0,1,86,95V93.52h.5v1.42a1,1,0,0,0,.11.55.46.46,0,0,0,.4.16.74.74,0,0,0,.6-.35V93.52h.49V96Z"/><path class="cls-2" d="M89,92.46a.29.29,0,0,1,.21.09.25.25,0,0,1,.09.2.31.31,0,0,1-.3.3.27.27,0,0,1-.2-.09.29.29,0,0,1-.09-.21.28.28,0,0,1,.09-.2A.27.27,0,0,1,89,92.46Zm-.24,1.06h.49V96h-.49Z"/><path class="cls-2" d="M89.53,93.91l.93-.91v.52h.79V94h-.79v1.23c0,.28.12.43.36.43a1.08,1.08,0,0,0,.56-.18v.46a1.22,1.22,0,0,1-.62.16.8.8,0,0,1-.57-.2.74.74,0,0,1-.12-.13.77.77,0,0,1-.07-.2,2.25,2.25,0,0,1,0-.46V94h-.44Z"/><path class="cls-2" d="M91.56,95.84v-.53a2.55,2.55,0,0,0,.43.23.86.86,0,0,0,.37.1.45.45,0,0,0,.26-.08.21.21,0,0,0,.12-.18.22.22,0,0,0-.08-.18,1.29,1.29,0,0,0-.31-.21,2.2,2.2,0,0,1-.63-.46.62.62,0,0,1-.14-.41.57.57,0,0,1,.22-.47.89.89,0,0,1,.58-.18,1.65,1.65,0,0,1,.75.2v.49a1.54,1.54,0,0,0-.72-.26.41.41,0,0,0-.23.06.18.18,0,0,0-.09.16.27.27,0,0,0,.08.17,1.84,1.84,0,0,0,.28.19l.18.1c.42.23.62.49.62.78a.64.64,0,0,1-.24.51.93.93,0,0,1-.61.19,1.59,1.59,0,0,1-.4,0A3.16,3.16,0,0,1,91.56,95.84Z"/><path class="cls-2" d="M98.35,92.22h.52V96H98.4l-2.54-2.93V96h-.51v-3.8h.44l2.56,3Z"/><path class="cls-2" d="M101.69,94.81H99.93a.88.88,0,0,0,.24.57.82.82,0,0,0,.58.22,1.53,1.53,0,0,0,.9-.31v.48a1.34,1.34,0,0,1-.45.22,1.7,1.7,0,0,1-.53.07,1.21,1.21,0,0,1-.67-.17,1.25,1.25,0,0,1-.41-.47,1.41,1.41,0,0,1-.15-.67,1.36,1.36,0,0,1,.32-.93,1.12,1.12,0,0,1,.84-.35,1,1,0,0,1,.8.35,1.42,1.42,0,0,1,.29.93Zm-1.75-.3h1.26a.68.68,0,0,0-.17-.45.66.66,0,0,0-.86,0A.78.78,0,0,0,99.94,94.51Z"/><path class="cls-2" d="M102.05,95.84v-.53a2.55,2.55,0,0,0,.43.23.89.89,0,0,0,.37.1.5.5,0,0,0,.27-.08.22.22,0,0,0,.11-.18.25.25,0,0,0-.07-.18,1.73,1.73,0,0,0-.32-.21,2.12,2.12,0,0,1-.62-.46.63.63,0,0,1-.15-.41.57.57,0,0,1,.22-.47.89.89,0,0,1,.58-.18,1.62,1.62,0,0,1,.75.2v.49a1.54,1.54,0,0,0-.72-.26.41.41,0,0,0-.23.06.18.18,0,0,0-.09.16.27.27,0,0,0,.08.17l.28.19.18.1q.63.35.63.78a.64.64,0,0,1-.24.51,1,1,0,0,1-.62.19,1.64,1.64,0,0,1-.4,0A3.16,3.16,0,0,1,102.05,95.84Z"/><path class="cls-2" d="M103.91,93.91l.93-.91v.52h.79V94h-.79v1.23c0,.28.12.43.36.43a1.08,1.08,0,0,0,.56-.18v.46a1.22,1.22,0,0,1-.62.16.8.8,0,0,1-.57-.2.69.69,0,0,1-.11-.13.52.52,0,0,1-.08-.2,2.25,2.25,0,0,1,0-.46V94h-.44Z"/><path class="cls-2" d="M106.07,92.22h.5V96h-.5Z"/><path class="cls-2" d="M109.36,94.81H107.6a.79.79,0,0,0,.24.57.82.82,0,0,0,.58.22,1.53,1.53,0,0,0,.9-.31v.48a1.34,1.34,0,0,1-.45.22,1.7,1.7,0,0,1-.53.07,1.21,1.21,0,0,1-.67-.17,1.25,1.25,0,0,1-.41-.47,1.41,1.41,0,0,1-.15-.67,1.32,1.32,0,0,1,.32-.93,1.12,1.12,0,0,1,.84-.35,1,1,0,0,1,.8.35,1.42,1.42,0,0,1,.29.93Zm-1.75-.3h1.26a.68.68,0,0,0-.17-.45.57.57,0,0,0-.43-.16.61.61,0,0,0-.44.16A.83.83,0,0,0,107.61,94.51Zm1.21-2.35-.61.81h-.31l.37-.81Z"/><path class="cls-2" d="M112.35,94.43l-.42-.25a1.93,1.93,0,0,1-.55-.47.9.9,0,0,1-.17-.53.94.94,0,0,1,.32-.73,1.12,1.12,0,0,1,.8-.28,1.55,1.55,0,0,1,.88.27v.61a1.28,1.28,0,0,0-.89-.39.73.73,0,0,0-.43.12.37.37,0,0,0-.18.32.52.52,0,0,0,.13.32,1.49,1.49,0,0,0,.41.31l.41.25a1.2,1.2,0,0,1,.7,1,1,1,0,0,1-.31.75,1.11,1.11,0,0,1-.79.28,1.68,1.68,0,0,1-1-.34V95a1.27,1.27,0,0,0,1,.55.64.64,0,0,0,.43-.14.44.44,0,0,0,.17-.35C112.85,94.85,112.68,94.63,112.35,94.43Z"/><path class="cls-2" d="M114.09,95.41a.33.33,0,0,1,.24.1.34.34,0,0,1,0,.46.36.36,0,0,1-.24.09.32.32,0,0,1-.23-.09.33.33,0,0,1,.23-.56Z"/><path class="cls-2" d="M116.28,92.2h.38L118.37,96h-.56l-.51-1.13h-1.62L115.21,96h-.56Zm.8,2.21L116.47,93l-.57,1.38Z"/><path class="cls-2" d="M118.92,95.41a.34.34,0,0,1,.33.33.32.32,0,0,1-.09.23.37.37,0,0,1-.48,0,.34.34,0,0,1,0-.46A.33.33,0,0,1,118.92,95.41Z"/><path class="cls-2" d="M21,67.14h.82v5.71H21Z"/><path class="cls-2" d="M23.76,69.09v.48A1.48,1.48,0,0,1,24.89,69a1.25,1.25,0,0,1,.65.18,1.17,1.17,0,0,1,.46.5,2.43,2.43,0,0,1,.16,1v2.15h-.75V70.71a1.41,1.41,0,0,0-.17-.82.66.66,0,0,0-.59-.25,1,1,0,0,0-.89.53v2.68H23V69.09Z"/><path class="cls-2" d="M27.94,69.09v.48A1.48,1.48,0,0,1,29.07,69a1.25,1.25,0,0,1,.65.18,1.17,1.17,0,0,1,.46.5,2.27,2.27,0,0,1,.16,1v2.15h-.75V70.71a1.41,1.41,0,0,0-.17-.82.66.66,0,0,0-.59-.25,1,1,0,0,0-.89.53v2.68h-.76V69.09Z"/><path class="cls-2" d="M33.17,69.08a2,2,0,0,1,1.43.56A1.88,1.88,0,0,1,35.16,71a1.78,1.78,0,0,1-.57,1.35,2.09,2.09,0,0,1-1.45.53,2,2,0,0,1-1.41-.54A1.82,1.82,0,0,1,31.16,71a1.85,1.85,0,0,1,.57-1.38A2,2,0,0,1,33.17,69.08Zm0,.67a1.19,1.19,0,0,0-.88.35,1.25,1.25,0,0,0-.34.9,1.19,1.19,0,0,0,.35.88,1.25,1.25,0,0,0,.9.34,1.22,1.22,0,0,0,.9-.35,1.19,1.19,0,0,0,.35-.88A1.17,1.17,0,0,0,34,70.1,1.26,1.26,0,0,0,33.13,69.75Z"/><path class="cls-2" d="M38.21,69.09H39l-1.66,3.82H37.1l-1.7-3.82h.82l1,2.31Z"/><path class="cls-2" d="M41.93,70.59v1.6c0,.12,0,.19.13.19a.93.93,0,0,0,.42-.2v.45a2.47,2.47,0,0,1-.41.22.87.87,0,0,1-.32.06c-.32,0-.5-.12-.56-.37a1.64,1.64,0,0,1-1,.36.87.87,0,0,1-.91-.91.92.92,0,0,1,.25-.63,1.68,1.68,0,0,1,.73-.44l1-.33v-.2a.6.6,0,0,0-.68-.68,1.61,1.61,0,0,0-1.18.63v-.81A1.52,1.52,0,0,1,40.58,69a1.41,1.41,0,0,1,1,.32,1,1,0,0,1,.22.27,1.06,1.06,0,0,1,.12.34A4.32,4.32,0,0,1,41.93,70.59ZM41.2,72.1V71l-.5.19a1.63,1.63,0,0,0-.54.31.52.52,0,0,0-.15.38.51.51,0,0,0,.14.38.52.52,0,0,0,.39.14A.91.91,0,0,0,41.2,72.1Z"/><path class="cls-2" d="M42.61,69.69,44,68.32v.77h1.18v.67H44V71.6c0,.43.17.64.53.64a1.64,1.64,0,0,0,.85-.26v.69a1.91,1.91,0,0,1-.94.24,1.24,1.24,0,0,1-.85-.3.55.55,0,0,1-.17-.2.87.87,0,0,1-.12-.29,3.3,3.3,0,0,1-.05-.69V69.76h-.65Z"/><path class="cls-2" d="M46.3,67.51a.42.42,0,0,1,.32.13.4.4,0,0,1,.13.31.42.42,0,0,1-.13.31.42.42,0,0,1-.32.13.41.41,0,0,1-.3-.13.46.46,0,0,1-.13-.31.42.42,0,0,1,.13-.3A.42.42,0,0,1,46.3,67.51Zm-.36,1.58h.74v3.76h-.74Z"/><path class="cls-2" d="M49.55,69.08a1.94,1.94,0,0,1,1.42.56A1.85,1.85,0,0,1,51.54,71,1.78,1.78,0,0,1,51,72.38a2.09,2.09,0,0,1-1.45.53,1.94,1.94,0,0,1-1.41-.54A1.82,1.82,0,0,1,47.54,71a1.85,1.85,0,0,1,.57-1.38A2,2,0,0,1,49.55,69.08Zm0,.67a1.19,1.19,0,0,0-.88.35,1.25,1.25,0,0,0-.34.9,1.19,1.19,0,0,0,.35.88,1.35,1.35,0,0,0,1.8,0,1.19,1.19,0,0,0,.35-.88,1.17,1.17,0,0,0-.37-.89A1.26,1.26,0,0,0,49.51,69.75Z"/><path class="cls-2" d="M53.11,69.09v.48A1.48,1.48,0,0,1,54.24,69a1.22,1.22,0,0,1,.65.18,1.11,1.11,0,0,1,.46.5,2.27,2.27,0,0,1,.16,1v2.15h-.74V70.71a1.4,1.4,0,0,0-.18-.82.65.65,0,0,0-.59-.25,1.06,1.06,0,0,0-.89.53v2.68h-.76V69.09Z"/><path class="cls-2" d="M59.25,67.51a.42.42,0,0,1,.32.13.4.4,0,0,1,.13.31.42.42,0,0,1-.13.31.42.42,0,0,1-.32.13.41.41,0,0,1-.3-.13.46.46,0,0,1-.13-.31.42.42,0,0,1,.13-.3A.42.42,0,0,1,59.25,67.51Zm-.36,1.58h.74v3.76h-.74Z"/><path class="cls-2" d="M61.45,69.09v.48A1.48,1.48,0,0,1,62.58,69a1.25,1.25,0,0,1,.65.18,1.17,1.17,0,0,1,.46.5,2.43,2.43,0,0,1,.16,1v2.15H63.1V70.71a1.41,1.41,0,0,0-.17-.82.66.66,0,0,0-.59-.25,1,1,0,0,0-.89.53v2.68h-.76V69.09Z"/><path class="cls-2" d="M71.84,67.14h.78v5.71h-.7L68.1,68.46v4.39h-.77V67.14H68l3.84,4.43Z"/><path class="cls-2" d="M76.13,72.85v-.48a1.9,1.9,0,0,1-.54.4,1.54,1.54,0,0,1-.61.14,1.31,1.31,0,0,1-.65-.17,1.09,1.09,0,0,1-.46-.49,2.45,2.45,0,0,1-.15-1V69.09h.74v2.14a1.51,1.51,0,0,0,.17.83.7.7,0,0,0,.6.23,1.08,1.08,0,0,0,.9-.52V69.09h.74v3.76Z"/><path class="cls-2" d="M77.39,69.69l1.4-1.37v.77H80v.67H78.79V71.6c0,.43.17.64.53.64a1.64,1.64,0,0,0,.85-.26v.69a1.91,1.91,0,0,1-.94.24,1.24,1.24,0,0,1-.85-.3.55.55,0,0,1-.17-.2.87.87,0,0,1-.12-.29,3.3,3.3,0,0,1,0-.69V69.76h-.65Z"/><path class="cls-2" d="M81.5,69.09V70l0-.06q.54-.87,1.08-.87a1.31,1.31,0,0,1,.87.42l-.39.66a1.09,1.09,0,0,0-.72-.37.76.76,0,0,0-.62.34,1.27,1.27,0,0,0-.26.81v2h-.75V69.09Z"/><path class="cls-2" d="M84.39,67.51a.42.42,0,0,1,.32.13.4.4,0,0,1,.13.31.42.42,0,0,1-.13.31.42.42,0,0,1-.32.13.41.41,0,0,1-.3-.13A.46.46,0,0,1,84,68a.42.42,0,0,1,.13-.3A.42.42,0,0,1,84.39,67.51ZM84,69.09h.74v3.76H84Z"/><path class="cls-2" d="M85.32,69.69l1.39-1.37v.77H87.9v.67H86.71V71.6c0,.43.18.64.54.64a1.6,1.6,0,0,0,.84-.26v.69a1.84,1.84,0,0,1-.93.24,1.24,1.24,0,0,1-.85-.3.7.7,0,0,1-.18-.2,1.18,1.18,0,0,1-.11-.29,3.3,3.3,0,0,1,0-.69V69.76h-.65Z"/><path class="cls-2" d="M89,67.51a.44.44,0,0,1,.45.44.46.46,0,0,1-.13.31.44.44,0,0,1-.32.13.41.41,0,0,1-.3-.13.42.42,0,0,1-.13-.31.38.38,0,0,1,.13-.3A.42.42,0,0,1,89,67.51Zm-.37,1.58h.75v3.76h-.75Z"/><path class="cls-2" d="M92.26,69.08a2,2,0,0,1,1.42.56A1.85,1.85,0,0,1,94.25,71a1.76,1.76,0,0,1-.58,1.35,2.05,2.05,0,0,1-1.45.53,2,2,0,0,1-1.41-.54A1.81,1.81,0,0,1,90.25,71a1.85,1.85,0,0,1,.57-1.38A2,2,0,0,1,92.26,69.08Zm0,.67a1.19,1.19,0,0,0-.88.35A1.25,1.25,0,0,0,91,71a1.15,1.15,0,0,0,.35.88,1.21,1.21,0,0,0,.9.34,1.25,1.25,0,0,0,.9-.35,1.18,1.18,0,0,0,.34-.88,1.2,1.2,0,0,0-.36-.89A1.28,1.28,0,0,0,92.22,69.75Z"/><path class="cls-2" d="M95.82,69.09v.48A1.48,1.48,0,0,1,97,69a1.25,1.25,0,0,1,.65.18,1.17,1.17,0,0,1,.46.5,2.27,2.27,0,0,1,.16,1v2.15h-.75V70.71a1.41,1.41,0,0,0-.17-.82.66.66,0,0,0-.59-.25,1,1,0,0,0-.89.53v2.68h-.76V69.09Z"/></g></g></svg>