<svg width="46" height="50" viewBox="0 0 46 50" fill="none" xmlns="http://www.w3.org/2000/svg">
<path d="M9.45125 9.91515C16.8332 3.23774 27.8805 3.13564 35.3645 9.23107L29.4324 9.45569C28.6667 9.48632 28.0745 10.1193 28.1051 10.8851C28.1357 11.6304 28.7483 12.2124 29.4835 12.2124C29.5039 12.2124 29.5141 12.2124 29.5345 12.2124L38.6419 11.8755C39.3873 11.8449 39.9692 11.2425 39.9692 10.4971V10.395C39.9692 10.3746 39.9692 10.3644 39.9692 10.344V10.3338L39.6323 1.32845C39.6017 0.562692 38.9584 -0.0294937 38.2029 0.00113658C37.4371 0.0317669 36.845 0.664793 36.8756 1.43055L37.09 7.07674C33.3837 4.04434 28.8198 2.2882 23.9394 2.04316C17.895 1.73685 12.0855 3.80951 7.60322 7.87313C1.43631 13.4581 -1.17747 21.9529 0.782868 30.0393C0.93602 30.6723 1.49758 31.0909 2.12039 31.0909C2.2327 31.0909 2.3348 31.0807 2.44712 31.0501C3.18224 30.8663 3.6417 30.1209 3.45792 29.3858C1.74262 22.2796 4.02968 14.816 9.45125 9.91515Z" fill="white"/>
<path d="M45.2173 19.9618C45.0335 19.2267 44.2882 18.7673 43.5531 18.951C42.818 19.1348 42.3585 19.8802 42.5423 20.6153C44.2678 27.7215 41.9705 35.1851 36.549 40.0859C32.7406 43.5267 27.9623 45.2216 23.2043 45.2216C18.6609 45.2216 14.1276 43.6799 10.4723 40.6373L16.4759 40.0962C17.2314 40.0247 17.793 39.361 17.7215 38.5953C17.6501 37.8295 16.9864 37.2782 16.2206 37.3496L7.14386 38.1664C6.38831 38.2379 5.82675 38.9016 5.89822 39.6673L6.71503 48.7441C6.77629 49.4588 7.37869 49.9999 8.08318 49.9999C8.12403 49.9999 8.16487 49.9999 8.20571 49.9897C8.96125 49.9183 9.52281 49.2546 9.45134 48.4889L8.96125 42.9652C12.6675 45.967 17.211 47.7129 22.0608 47.9579C22.4488 47.9783 22.8368 47.9886 23.2146 47.9886C28.8403 47.9886 34.1904 45.9261 38.397 42.128C44.5639 36.543 47.1777 28.0585 45.2173 19.9618Z" fill="white"/>
</svg>
