<svg width="181" height="101" viewBox="0 0 181 101" fill="none" xmlns="http://www.w3.org/2000/svg">
<path d="M139.5 16.4997H17C4.2 16.8996 0.666667 25.9997 0.5 30.4998V71.4998C3.3 82.6998 12.6667 85.1665 17 84.9998H139.5V95.9998C141.5 103.6 147.333 99.8331 150 96.9998L176.5 63.4998C182.5 53.4998 179 41.9998 176.5 37.4998C170.1 25.0998 154.167 8.66637 147 1.99967C140.6 -0.800335 139.333 3.833 139.5 6.49967V16.4997Z" fill="#FEEADF" stroke="#E3988B"/>
<path d="M22.286 42.0041C22.286 42.7041 21.824 43.0681 21.026 43.0681H19.262V40.8981H20.998C21.796 40.8981 22.286 41.3041 22.286 42.0041ZM22.048 38.1261C22.048 38.7981 21.614 39.1481 20.83 39.1481H19.262V37.0901H20.83C21.614 37.0901 22.048 37.4541 22.048 38.1261ZM24.708 42.3261C24.708 41.2061 23.966 40.1981 22.818 39.9601C23.77 39.6801 24.484 38.9101 24.484 37.7201C24.484 36.1661 23.294 35.1721 21.292 35.1721H16.868V45.0001H21.446C23.518 45.0001 24.708 43.9501 24.708 42.3261ZM33.8105 37.1881H31.4165V41.4301C31.4165 42.4941 30.8285 43.0821 29.9045 43.0821C29.0085 43.0821 28.4065 42.4941 28.4065 41.4301V37.1881H26.0265V41.7521C26.0265 43.8381 27.2445 45.0841 29.0505 45.0841C30.1005 45.0841 30.9405 44.6081 31.4165 43.9361V45.0001H33.8105V37.1881ZM38.4549 41.0381C38.4549 43.7541 40.2329 45.0981 42.5149 45.0981C44.7829 45.0981 46.6869 43.7541 46.6869 41.0381V35.1721H44.2929V41.0521C44.2929 42.2141 43.6909 42.8861 42.5569 42.8861C41.4229 42.8861 40.8489 42.2141 40.8489 41.0521V35.1721H38.4549V41.0381ZM53.926 37.1881H47.962V39.1621H51.182L47.934 43.0961V45.0001H53.996V43.0261H50.608L53.926 39.0921V37.1881ZM66.0793 45.0001H68.4593V40.4361C68.4593 38.3361 67.2133 37.1041 65.2813 37.1041C64.1473 37.1041 63.1673 37.7341 62.6493 38.5601C62.1173 37.6221 61.1653 37.1041 59.9893 37.1041C58.9673 37.1041 58.1693 37.5381 57.7073 38.1681V37.1881H55.3133V45.0001H57.7073V40.7581C57.7073 39.7361 58.2953 39.1761 59.2053 39.1761C60.1153 39.1761 60.7033 39.7361 60.7033 40.7581V45.0001H63.0833V40.7581C63.0833 39.7361 63.6713 39.1761 64.5813 39.1761C65.4913 39.1761 66.0793 39.7361 66.0793 40.7581V45.0001ZM69.6576 41.0801C69.6576 43.5441 71.1836 45.1121 73.0876 45.1121C74.2496 45.1121 75.0756 44.5801 75.5096 43.8941V45.0001H77.9036V37.1881H75.5096V38.2941C75.0896 37.6081 74.2636 37.0761 73.1016 37.0761C71.1836 37.0761 69.6576 38.6161 69.6576 41.0801ZM75.5096 41.0941C75.5096 42.3401 74.7116 43.0261 73.8016 43.0261C72.9056 43.0261 72.0936 42.3261 72.0936 41.0801C72.0936 39.8341 72.9056 39.1621 73.8016 39.1621C74.7116 39.1621 75.5096 39.8481 75.5096 41.0941ZM85.0256 45.0001H87.4056V40.4361C87.4056 38.3361 86.2016 37.1041 84.3956 37.1041C83.3456 37.1041 82.5056 37.5661 82.0296 38.2241V37.1881H79.6356V45.0001H82.0296V40.7581C82.0296 39.6941 82.6176 39.1061 83.5276 39.1061C84.4376 39.1061 85.0256 39.6941 85.0256 40.7581V45.0001ZM98.154 45.0001H100.548V35.1721H98.154V39.0221H94.43V35.1721H92.036V45.0001H94.43V40.9541H98.154V45.0001ZM105.72 38.9941C106.518 38.9941 107.19 39.4841 107.19 40.3381H104.194C104.334 39.4701 104.936 38.9941 105.72 38.9941ZM109.458 42.4101H106.91C106.714 42.8301 106.336 43.1661 105.664 43.1661C104.894 43.1661 104.264 42.6901 104.18 41.6681H109.598C109.626 41.4301 109.64 41.1921 109.64 40.9681C109.64 38.5881 108.03 37.0761 105.748 37.0761C103.424 37.0761 101.8 38.6161 101.8 41.0941C101.8 43.5721 103.452 45.1121 105.748 45.1121C107.694 45.1121 109.08 43.9361 109.458 42.4101ZM110.903 45.0001H113.297V41.7241L115.677 45.0001H118.645L115.369 41.1081L118.617 37.1881H115.663L113.297 40.3661V34.6401H110.903V45.0001ZM119.557 45.0001H121.951V37.1881H119.557V45.0001ZM120.761 36.3761C121.601 36.3761 122.175 35.8021 122.175 35.0881C122.175 34.3601 121.601 33.7861 120.761 33.7861C119.907 33.7861 119.333 34.3601 119.333 35.0881C119.333 35.8021 119.907 36.3761 120.761 36.3761ZM134.452 45.0001H136.832V40.4361C136.832 38.3361 135.586 37.1041 133.654 37.1041C132.52 37.1041 131.54 37.7341 131.022 38.5601C130.49 37.6221 129.538 37.1041 128.362 37.1041C127.34 37.1041 126.542 37.5381 126.08 38.1681V37.1881H123.686V45.0001H126.08V40.7581C126.08 39.7361 126.668 39.1761 127.578 39.1761C128.488 39.1761 129.076 39.7361 129.076 40.7581V45.0001H131.456V40.7581C131.456 39.7361 132.044 39.1761 132.954 39.1761C133.864 39.1761 134.452 39.7361 134.452 40.7581V45.0001ZM138.507 45.0001H140.901V34.6401H138.507V45.0001ZM146.08 38.9941C146.878 38.9941 147.55 39.4841 147.55 40.3381H144.554C144.694 39.4701 145.296 38.9941 146.08 38.9941ZM149.818 42.4101H147.27C147.074 42.8301 146.696 43.1661 146.024 43.1661C145.254 43.1661 144.624 42.6901 144.54 41.6681H149.958C149.986 41.4301 150 41.1921 150 40.9681C150 38.5881 148.39 37.0761 146.108 37.0761C143.784 37.0761 142.16 38.6161 142.16 41.0941C142.16 43.5721 143.812 45.1121 146.108 45.1121C148.054 45.1121 149.44 43.9361 149.818 42.4101ZM153.657 41.3741C153.657 40.0301 154.315 39.6381 155.449 39.6381H156.107V37.1041C155.057 37.1041 154.203 37.6641 153.657 38.4901V37.1881H151.263V45.0001H153.657V41.3741ZM22.286 63.0041C22.286 63.7041 21.824 64.0681 21.026 64.0681H19.262V61.8981H20.998C21.796 61.8981 22.286 62.3041 22.286 63.0041ZM22.048 59.1261C22.048 59.7981 21.614 60.1481 20.83 60.1481H19.262V58.0901H20.83C21.614 58.0901 22.048 58.4541 22.048 59.1261ZM24.708 63.3261C24.708 62.2061 23.966 61.1981 22.818 60.9601C23.77 60.6801 24.484 59.9101 24.484 58.7201C24.484 57.1661 23.294 56.1721 21.292 56.1721H16.868V66.0001H21.446C23.518 66.0001 24.708 64.9501 24.708 63.3261ZM33.8105 58.1881H31.4165V62.4301C31.4165 63.4941 30.8285 64.0821 29.9045 64.0821C29.0085 64.0821 28.4065 63.4941 28.4065 62.4301V58.1881H26.0265V62.7521C26.0265 64.8381 27.2445 66.0841 29.0505 66.0841C30.1005 66.0841 30.9405 65.6081 31.4165 64.9361V66.0001H33.8105V58.1881ZM35.5301 66.0001H37.9241V55.6401H35.5301V66.0001ZM47.373 58.1881H44.979V62.4301C44.979 63.4941 44.391 64.0821 43.467 64.0821C42.571 64.0821 41.969 63.4941 41.969 62.4301V58.1881H39.589V62.7521C39.589 64.8381 40.807 66.0841 42.613 66.0841C43.663 66.0841 44.503 65.6081 44.979 64.9361V66.0001H47.373V58.1881ZM54.4826 66.0001H56.8626V61.4361C56.8626 59.3361 55.6586 58.1041 53.8526 58.1041C52.8026 58.1041 51.9626 58.5661 51.4866 59.2241V58.1881H49.0926V66.0001H51.4866V61.7581C51.4866 60.6941 52.0746 60.1061 52.9846 60.1061C53.8946 60.1061 54.4826 60.6941 54.4826 61.7581V66.0001ZM69.2922 66.0001H71.6722V61.4361C71.6722 59.3361 70.4262 58.1041 68.4942 58.1041C67.3602 58.1041 66.3802 58.7341 65.8622 59.5601C65.3302 58.6221 64.3782 58.1041 63.2022 58.1041C62.1802 58.1041 61.3822 58.5381 60.9202 59.1681V58.1881H58.5262V66.0001H60.9202V61.7581C60.9202 60.7361 61.5082 60.1761 62.4182 60.1761C63.3282 60.1761 63.9162 60.7361 63.9162 61.7581V66.0001H66.2962V61.7581C66.2962 60.7361 66.8842 60.1761 67.7942 60.1761C68.7042 60.1761 69.2922 60.7361 69.2922 61.7581V66.0001ZM72.8705 62.0801C72.8705 64.5441 74.3965 66.1121 76.3005 66.1121C77.4625 66.1121 78.2885 65.5801 78.7225 64.8941V66.0001H81.1165V58.1881H78.7225V59.2941C78.3025 58.6081 77.4765 58.0761 76.3145 58.0761C74.3965 58.0761 72.8705 59.6161 72.8705 62.0801ZM78.7225 62.0941C78.7225 63.3401 77.9245 64.0261 77.0145 64.0261C76.1185 64.0261 75.3065 63.3261 75.3065 62.0801C75.3065 60.8341 76.1185 60.1621 77.0145 60.1621C77.9245 60.1621 78.7225 60.8481 78.7225 62.0941ZM82.3725 62.0801C82.3725 64.5441 83.8985 66.1121 85.8165 66.1121C86.9645 66.1121 87.7905 65.5941 88.2245 64.8801V66.0001H90.6185V55.6401H88.2245V59.2661C87.7485 58.5521 86.8525 58.0761 85.8165 58.0761C83.8985 58.0761 82.3725 59.6161 82.3725 62.0801ZM88.2245 62.0941C88.2245 63.3401 87.4265 64.0261 86.5165 64.0261C85.6205 64.0261 84.8085 63.3261 84.8085 62.0801C84.8085 60.8341 85.6205 60.1621 86.5165 60.1621C87.4265 60.1621 88.2245 60.8481 88.2245 62.0941ZM92.5324 66.0001H94.9264V58.1881H92.5324V66.0001ZM96.3725 62.0801C96.3725 64.5441 97.8985 66.1121 99.8165 66.1121C100.964 66.1121 101.79 65.5661 102.224 64.8801V65.9861C102.224 67.3021 101.51 67.7781 100.6 67.7781C99.7745 67.7781 99.1865 67.4001 99.0325 66.8121H96.6665C96.8765 68.6741 98.3885 69.8501 100.712 69.8501C103.414 69.8501 104.618 68.0721 104.618 65.9861V58.1881H102.224V59.2941C101.804 58.5941 100.964 58.0761 99.8165 58.0761C97.8985 58.0761 96.3725 59.6161 96.3725 62.0801ZM102.224 62.0941C102.224 63.3401 101.426 64.0261 100.516 64.0261C99.6205 64.0261 98.8085 63.3261 98.8085 62.0801C98.8085 60.8341 99.6205 60.1621 100.516 60.1621C101.426 60.1621 102.224 60.8481 102.224 62.0941ZM103.176 55.2061V54.9261H101.972C101.972 55.5141 101.692 55.8641 100.782 55.8641C99.8725 55.8641 99.5925 55.5141 99.5925 54.9261H98.4025V55.1921C98.4025 56.7601 99.3825 57.6141 100.782 57.6141C102.182 57.6141 103.176 56.7741 103.176 55.2061ZM106.532 66.0001H108.926V58.1881H106.532V66.0001ZM116.238 66.0001H118.618V61.4361C118.618 59.3361 117.414 58.1041 115.608 58.1041C114.558 58.1041 113.718 58.5661 113.242 59.2241V58.1881H110.848V66.0001H113.242V61.7581C113.242 60.6941 113.83 60.1061 114.74 60.1061C115.65 60.1061 116.238 60.6941 116.238 61.7581V66.0001ZM119.806 62.0801C119.806 64.5441 121.332 66.1121 123.25 66.1121C124.398 66.1121 125.224 65.5941 125.658 64.8801V66.0001H128.052V55.6401H125.658V59.2661C125.182 58.5521 124.286 58.0761 123.25 58.0761C121.332 58.0761 119.806 59.6161 119.806 62.0801ZM125.658 62.0941C125.658 63.3401 124.86 64.0261 123.95 64.0261C123.054 64.0261 122.242 63.3261 122.242 62.0801C122.242 60.8341 123.054 60.1621 123.95 60.1621C124.86 60.1621 125.658 60.8481 125.658 62.0941ZM129.308 62.0801C129.308 64.5441 130.834 66.1121 132.738 66.1121C133.9 66.1121 134.726 65.5801 135.16 64.8941V66.0001H137.554V58.1881H135.16V59.2941C134.74 58.6081 133.914 58.0761 132.752 58.0761C130.834 58.0761 129.308 59.6161 129.308 62.0801ZM135.16 62.0941C135.16 63.3401 134.362 64.0261 133.452 64.0261C132.556 64.0261 131.744 63.3261 131.744 62.0801C131.744 60.8341 132.556 60.1621 133.452 60.1621C134.362 60.1621 135.16 60.8481 135.16 62.0941Z" fill="#E3988B"/>
</svg>
