<svg width="551" height="419" viewBox="0 0 551 419" fill="none" xmlns="http://www.w3.org/2000/svg">
<path d="M92.6162 349.243C98.0251 356.453 101.475 363.837 102.965 371.395C104.455 378.953 103.859 386.092 101.177 392.812C98.5032 399.473 94.0181 405.166 87.7217 409.889C81.4253 414.612 74.7605 417.363 67.7274 418.143C60.6689 418.888 53.7498 417.598 46.9702 414.273C40.2244 410.922 34.1682 405.81 28.8017 398.938L25.6782 394.775C20.2439 387.53 16.7774 380.159 15.2786 372.661C13.7883 365.103 14.3843 357.964 17.0665 351.243C19.7827 344.498 24.3059 338.75 30.6361 334.002C36.8987 329.304 43.6016 326.603 50.7447 325.9C57.8879 325.197 64.8831 326.589 71.7305 330.075C78.5863 333.502 84.6975 338.757 90.0641 345.841L92.6162 349.243ZM72.165 359.744C66.6545 352.398 61.2417 347.756 55.9264 345.819C50.6195 343.822 45.6811 344.537 41.1111 347.966C32.1743 354.67 32.48 364.915 42.0282 378.701L46.0532 384.172C51.4875 391.416 56.8665 396.084 62.1903 398.174C67.514 400.263 72.5455 399.531 77.2848 395.976C81.7871 392.598 83.8221 388.083 83.3899 382.429C82.9577 376.776 80.0668 370.348 74.7171 363.146L72.165 359.744ZM2.03416 339.667C0.637496 337.805 0.171792 335.668 0.637051 333.256C1.13616 330.818 2.46897 328.787 4.63548 327.162C6.80199 325.536 9.10823 324.838 11.5542 325.066C14.0341 325.269 15.9723 326.301 17.369 328.163C18.7656 330.025 19.2144 332.175 18.7153 334.612C18.25 337.024 16.9342 339.043 14.7677 340.668C12.6012 342.294 10.278 343.005 7.79814 342.802C5.35215 342.574 3.43083 341.529 2.03416 339.667ZM28.3877 319.898C26.991 318.036 26.5253 315.899 26.9906 313.487C27.4897 311.049 28.8225 309.018 30.989 307.392C33.1555 305.767 35.4618 305.069 37.9078 305.297C40.3876 305.5 42.3258 306.532 43.7225 308.394C45.1192 310.256 45.568 312.406 45.0688 314.843C44.6036 317.255 43.2877 319.274 41.1212 320.899C38.9547 322.524 36.6315 323.236 34.1517 323.033C31.7057 322.804 29.7844 321.759 28.3877 319.898ZM136.286 331.084L126.639 338.322L146.217 364.421L128.394 377.791L72.934 303.859L102.03 282.033C110.797 275.456 119.112 272.26 126.975 272.446C134.838 272.631 141.435 276.278 146.768 283.387C150.628 288.532 152.778 293.585 153.219 298.544C153.693 303.479 152.5 308.659 149.64 314.084L187.436 332.311L188.007 333.072L168.915 347.395L136.286 331.084ZM116.316 324.561L127.588 316.105C130.974 313.565 132.852 310.781 133.224 307.751C133.605 304.661 132.602 301.526 130.215 298.344C127.828 295.162 125.098 293.321 122.026 292.822C118.928 292.289 115.703 293.28 112.352 295.794L101.08 304.25L116.316 324.561ZM257.979 280.583L240.257 293.877L179.546 267.527L214.056 313.532L196.233 326.902L140.773 252.97L158.596 239.6L219.256 265.987L184.746 219.983L202.518 206.651L257.979 280.583ZM291.601 206.401L263.572 227.427L276.79 245.047L309.897 220.212L320.181 233.922L269.251 272.127L213.791 198.195L264.822 159.913L275.145 173.674L241.936 198.586L253.63 214.174L281.659 193.148L291.601 206.401ZM331.932 182.098L330.638 195.606L345.265 215.105L327.442 228.475L271.982 154.543L289.805 141.173L314.259 173.772L313.407 159.731L311.944 124.565L333.981 108.034L333.529 159.475L389.442 181.966L368.318 197.812L331.932 182.098ZM406.862 74.8664L384.672 91.5121L429.81 151.683L411.987 165.053L366.849 104.882L345.066 121.223L334.743 107.462L396.539 61.1057L406.862 74.8664ZM478.556 115.116L460.784 128.448L405.324 54.516L423.096 41.1841L478.556 115.116ZM395.966 41.3011C394.315 39.1007 393.765 36.7098 394.315 34.1284C394.865 31.5469 396.358 29.342 398.796 27.5137C401.199 25.7107 403.717 24.9064 406.349 25.1008C408.981 25.2952 411.123 26.4926 412.773 28.693C414.399 30.8595 414.936 33.2334 414.386 35.8149C413.836 38.3963 412.36 40.5885 409.956 42.3915C407.519 44.2198 404.984 45.0368 402.352 44.8424C399.72 44.648 397.591 43.4676 395.966 41.3011ZM498.838 59.1152L489.19 66.3525L508.769 92.4521L490.946 105.822L435.486 31.89L464.581 10.0639C473.349 3.48685 481.664 0.291052 489.526 0.476481C497.389 0.661911 503.987 4.30905 509.319 11.4179C513.179 16.5634 515.33 21.6159 515.77 26.5755C516.245 31.5097 515.052 36.6895 512.192 42.1149L549.987 60.3417L550.559 61.1033L531.466 75.4255L498.838 59.1152ZM478.867 52.5918L490.14 44.1356C493.525 41.5962 495.404 38.8115 495.776 35.7815C496.157 32.6923 495.153 29.5567 492.766 26.3746C490.379 23.1925 487.65 21.352 484.577 20.8529C481.48 20.32 478.255 21.3106 474.904 23.8246L463.631 32.2808L478.867 52.5918Z" fill="#DADADA"/>
</svg>
